<svg width="13" height="12" viewBox="0 0 13 12" fill="none" xmlns="http://www.w3.org/2000/svg">
<path d="M5.56903 0.00663446C5.32679 -0.0410804 5.11844 0.175711 5.16429 0.42777C5.19021 0.567802 5.29987 0.681903 5.43445 0.708872C5.67669 0.756587 5.88505 0.539796 5.83919 0.287737C5.81327 0.147704 5.70361 0.0336037 5.56903 0.00663446Z" fill="#D61F69"/>
<path d="M7.70238 2.22641C7.74824 2.47847 7.53988 2.69526 7.29764 2.64755C7.16306 2.62058 7.0534 2.50648 7.02748 2.36644C6.98163 2.11438 7.18998 1.89759 7.43222 1.94531C7.5668 1.97228 7.67646 2.08638 7.70238 2.22641Z" fill="#D61F69"/>
<path d="M4.57114 3.06453C4.617 3.31659 4.40865 3.53338 4.1664 3.48567C4.03182 3.4587 3.92217 3.3446 3.89625 3.20456C3.85039 2.95251 4.05874 2.73571 4.30098 2.78343C4.43556 2.8104 4.54522 2.9245 4.57114 3.06453Z" fill="#D61F69"/>
<path d="M2.47169 5.56541C2.22944 5.61313 2.02109 5.39633 2.06695 5.14428C2.09287 5.00424 2.20253 4.89014 2.33711 4.86317C2.57935 4.81546 2.7877 5.03225 2.74185 5.28431C2.71593 5.42434 2.60627 5.53844 2.47169 5.56541Z" fill="#D61F69"/>
<path d="M3.64503 6.56535C3.59917 6.31329 3.80752 6.0965 4.04977 6.14421C4.18435 6.17118 4.29401 6.28528 4.31993 6.42531C4.36578 6.67737 4.15743 6.89416 3.91519 6.84645C3.78061 6.81948 3.67095 6.70538 3.64503 6.56535Z" fill="#D61F69"/>
<path d="M4.52728 8.92204C4.48142 8.66999 4.68977 8.45319 4.93202 8.50091C5.0666 8.52788 5.17626 8.64198 5.20217 8.78201C5.24803 9.03407 5.03968 9.25086 4.79744 9.20315C4.66286 9.17618 4.5532 9.06208 4.52728 8.92204Z" fill="#D61F69"/>
<path d="M9.12993 7.25617C8.88768 7.30389 8.67933 7.0871 8.72519 6.83504C8.75111 6.69501 8.86077 6.58091 8.99535 6.55394C9.23759 6.50622 9.44594 6.72301 9.40008 6.97507C9.37417 7.1151 9.26451 7.2292 9.12993 7.25617Z" fill="#D61F69"/>
<path d="M10.5515 7.95426C10.5056 7.7022 10.714 7.48541 10.9562 7.53313C11.0908 7.5601 11.2005 7.6742 11.2264 7.81423C11.2722 8.06629 11.0639 8.28308 10.8217 8.23537C10.6871 8.2084 10.5774 8.0943 10.5515 7.95426Z" fill="#D61F69"/>
<path d="M10.3681 4.56859C10.1777 4.56859 10.0241 4.40781 10.0241 4.21072C10.0241 4.0126 10.1777 3.85286 10.3681 3.85286C10.5585 3.85286 10.712 4.0126 10.712 4.21072C10.712 4.40884 10.5585 4.56859 10.3681 4.56859Z" fill="#D61F69"/>
<path d="M7.45216 4.63808C7.4063 4.38602 7.61465 4.16923 7.8569 4.21695C7.99148 4.24392 8.10113 4.35802 8.12705 4.49805C8.17291 4.75011 7.96456 4.9669 7.72232 4.91919C7.58774 4.89222 7.47808 4.77812 7.45216 4.63808Z" fill="#D61F69"/>
<path d="M0.276534 4.26259C0.518778 4.21487 0.727129 4.43167 0.681272 4.68372C0.655353 4.82376 0.545694 4.93786 0.411114 4.96483C0.168869 5.01254 -0.0394809 4.79575 0.00637614 4.54369C0.0322953 4.40366 0.141953 4.28956 0.276534 4.26259Z" fill="#D61F69"/>
<path d="M1.32825 2.16729C1.03018 2.22952 0.791927 2.47951 0.735104 2.78862C0.633421 3.34563 1.09398 3.82589 1.63131 3.7232C1.9244 3.66719 2.16365 3.42862 2.23044 3.12781C2.25935 2.99815 2.25636 2.87367 2.22944 2.75853C2.19356 2.60709 2.2434 2.44735 2.36103 2.34881L2.76577 2.00962C2.86646 1.9256 3.00204 1.89759 3.12565 1.94012C3.20341 1.96709 3.29113 1.97435 3.38185 1.95568C3.58621 1.91315 3.7507 1.73682 3.7816 1.52314C3.83245 1.17565 3.55531 0.880023 3.22235 0.918402C3.02696 0.941223 2.85848 1.08852 2.79867 1.28352C2.77674 1.3551 2.77076 1.42356 2.77674 1.48787C2.7887 1.62064 2.74583 1.75134 2.64614 1.83536L2.23144 2.18285C2.1148 2.28035 1.9543 2.29902 1.81872 2.23056C1.67418 2.15795 1.5057 2.12994 1.32825 2.16729Z" fill="#D61F69"/>
<path d="M5.94286 3.19523L5.92891 3.45662V3.45455C5.91994 3.61014 6.00068 3.7564 6.13227 3.83004C6.37153 3.96489 6.53402 4.22628 6.53402 4.52813C6.53402 4.88288 6.30872 5.18369 5.99869 5.28431C5.85614 5.33099 5.75445 5.45961 5.73451 5.61313L5.62585 6.46577C5.60891 6.60269 5.66374 6.73546 5.76342 6.82778C5.8671 6.92321 5.9329 7.0622 5.9329 7.2178C5.9329 7.5072 5.7056 7.74266 5.42648 7.74266C5.15532 7.74266 4.92404 7.50512 4.92005 7.22402C4.91706 7.01241 5.03569 6.83089 5.20716 6.74583C5.3238 6.68775 5.40454 6.57157 5.42149 6.43776L5.53015 5.58408C5.54909 5.42849 5.48031 5.27808 5.3537 5.19303C5.26498 5.1339 5.18922 5.05714 5.1314 4.96586C5.04766 4.8362 4.90111 4.76567 4.75258 4.78849L4.53625 4.82064C4.40765 4.84035 4.297 4.92437 4.24217 5.04677C4.16242 5.22622 3.98796 5.35069 3.78459 5.35069C3.46958 5.35069 3.22135 5.05092 3.29014 4.71069C3.33101 4.5105 3.48752 4.34972 3.68092 4.3103C3.87033 4.27089 4.04478 4.34246 4.15843 4.47212C4.24715 4.57481 4.37575 4.62875 4.50734 4.60904L5.00379 4.53436V4.52813C5.00379 4.19724 5.19918 3.91406 5.47732 3.79581C5.61788 3.73565 5.71458 3.6008 5.72255 3.44418L5.73651 3.18278C5.74349 3.04794 5.68467 2.91828 5.58 2.83841C5.45539 2.74401 5.37364 2.5905 5.37364 2.41727C5.37364 2.08949 5.66274 1.83224 5.99072 1.90382C6.19109 1.94842 6.3486 2.12268 6.3805 2.33221C6.41439 2.55938 6.30872 2.76268 6.13925 2.86745C6.02561 2.93798 5.94984 3.05831 5.94286 3.19523Z" fill="#D61F69"/>
<path d="M11.2762 5.58616C11.4367 5.33617 11.7318 5.18577 12.0548 5.24697L12.0538 5.248C12.3559 5.30505 12.6011 5.55608 12.6599 5.8683C12.7556 6.37553 12.3828 6.82052 11.9103 6.82052C11.4876 6.82052 11.1456 6.46577 11.1456 6.02804V6.02493L10.7907 5.97306C10.6582 5.95335 10.5296 6.0104 10.4398 6.11309C10.3481 6.2189 10.2155 6.28528 10.067 6.28528C9.78788 6.28528 9.56058 6.04982 9.56058 5.76042C9.56058 5.47828 9.79087 5.23763 10.062 5.23452C10.2674 5.23141 10.4438 5.35588 10.5246 5.53637C10.5794 5.65773 10.6911 5.74175 10.8197 5.76042L10.8944 5.77079C11.046 5.79257 11.1915 5.71789 11.2762 5.58616Z" fill="#D61F69"/>
<path d="M8.9774 7.93041C9.06513 7.91485 9.15784 7.91588 9.25354 7.93559C9.55161 7.99679 9.79286 8.24678 9.84968 8.55692C9.92644 8.97495 9.68719 9.34837 9.33628 9.46662C9.19672 9.51433 9.10102 9.6471 9.08407 9.79854L9.07709 9.86286C9.06214 9.99978 9.11796 10.1315 9.21965 10.2207C9.32831 10.3161 9.39709 10.4583 9.39709 10.618C9.39709 10.9074 9.1708 11.1429 8.89067 11.1429C8.62052 11.1429 8.38924 10.9074 8.38425 10.6273C8.38027 10.4188 8.49391 10.2384 8.66139 10.1512C8.77802 10.0911 8.85678 9.97384 8.87173 9.839L8.87871 9.77365C8.89566 9.61806 8.82289 9.46869 8.69528 9.38571C8.57067 9.3048 8.46999 9.18759 8.40718 9.04859C8.34338 8.90752 8.2088 8.81624 8.05827 8.8152H7.79409C7.66649 8.81417 7.54387 8.87744 7.47509 8.98843C7.38537 9.13469 7.22786 9.23115 7.04842 9.23115C6.7324 9.23115 6.48517 8.93138 6.55296 8.59219C6.59384 8.38577 6.75932 8.22292 6.9587 8.18765C7.17004 8.15031 7.36144 8.24885 7.46811 8.4117C7.54288 8.5258 7.66151 8.60049 7.79509 8.60152H8.05927C8.2098 8.60152 8.34537 8.51128 8.41017 8.37125C8.41815 8.35465 8.42612 8.33806 8.43509 8.32146C8.50986 8.18558 8.50488 8.01754 8.41815 7.88891L7.89877 7.12029C7.824 7.01034 7.70138 6.94603 7.57179 6.95018C7.52693 6.95225 7.48007 6.94707 7.43222 6.93566C7.23683 6.88794 7.0853 6.71472 7.0544 6.50933C7.00156 6.15458 7.29166 5.85274 7.63359 5.90668C7.84493 5.93987 8.01839 6.11724 8.05428 6.33611C8.07023 6.43361 8.05927 6.52593 8.02936 6.60891C7.98251 6.73857 7.99048 6.88379 8.06724 6.99789L8.58662 7.76652C8.67435 7.89721 8.82687 7.95634 8.9774 7.93041Z" fill="#D61F69"/>
<path d="M2.89537 7.42421C2.97512 7.39517 3.06285 7.3848 3.15556 7.40243L3.15456 7.40451C3.36291 7.44392 3.53138 7.6213 3.56329 7.83809C3.61712 8.20736 3.3021 8.51854 2.94222 8.43245C2.77873 8.39407 2.64415 8.26648 2.58733 8.10363C2.56141 8.02895 2.55244 7.95738 2.55642 7.88891C2.5654 7.75511 2.50359 7.62752 2.39991 7.54869L1.88253 7.15348C1.7629 7.0622 1.6024 7.04872 1.47181 7.1234C1.32327 7.20742 1.14582 7.24269 0.958407 7.20639C0.656349 7.14726 0.411114 6.8952 0.354291 6.58194C0.252608 6.02285 0.716163 5.54259 1.25448 5.64839C1.55953 5.70752 1.80277 5.96373 1.8576 6.2801C1.87555 6.38175 1.87455 6.48029 1.8576 6.57365C1.82869 6.7282 1.88352 6.8869 2.00614 6.98026L2.52851 7.37857C2.63518 7.45948 2.77175 7.47089 2.89537 7.42421Z" fill="#D61F69"/>
<path d="M7.88182 1.10615C7.78313 1.16424 7.6645 1.18809 7.53789 1.16216C7.3425 1.12275 7.183 0.960931 7.14312 0.758661C7.07334 0.408061 7.3415 0.101027 7.67147 0.12281C7.78313 0.130071 7.88581 0.190233 7.96456 0.273215C8.08718 0.401838 8.13403 0.511789 8.14301 0.611368C8.15397 0.742065 8.23871 0.853054 8.35036 0.913216L9.19273 1.37066C9.32532 1.44223 9.48681 1.42874 9.60544 1.33435C9.75398 1.21714 9.94339 1.1549 10.1488 1.17668C10.4977 1.21403 10.7848 1.50654 10.8266 1.86751C10.8396 1.98265 10.8296 2.0926 10.7997 2.19529C10.7569 2.34362 10.8017 2.50336 10.9124 2.60709L11.3131 2.97947C11.4108 3.07076 11.5464 3.10291 11.673 3.06764C11.7458 3.0469 11.8255 3.04379 11.9093 3.06246C12.1106 3.10706 12.2691 3.28132 12.3 3.49189C12.3549 3.86116 12.0389 4.17235 11.679 4.08625C11.5205 4.04787 11.3869 3.92547 11.3291 3.76781C11.2962 3.67756 11.2882 3.59043 11.2982 3.50952C11.3161 3.37157 11.2772 3.23257 11.1775 3.14025L10.7748 2.7658C10.6621 2.66207 10.5026 2.6351 10.3641 2.6963C10.2734 2.73675 10.1737 2.75853 10.068 2.75853C9.99024 2.75853 9.91548 2.74609 9.8447 2.7243C9.70015 2.67866 9.54264 2.71912 9.44096 2.83529L9.22962 3.07594C9.14089 3.17656 9.10999 3.31659 9.14189 3.44936C9.16083 3.52508 9.16282 3.60703 9.14488 3.69209C9.10102 3.8985 8.93354 4.06239 8.73217 4.09455C8.39422 4.14849 8.10612 3.85598 8.14899 3.50641C8.17391 3.29999 8.32344 3.12469 8.51684 3.06972C8.58662 3.04897 8.65441 3.04586 8.71821 3.0552C8.85179 3.0749 8.98737 3.03549 9.07809 2.93176L9.28943 2.69215C9.39111 2.57597 9.41703 2.41105 9.36021 2.26583C9.32332 2.17351 9.30339 2.07186 9.30339 1.96605V1.9339C9.31037 1.77727 9.23061 1.63205 9.09703 1.55944L8.25067 1.09993C8.13503 1.03665 7.99646 1.03976 7.88182 1.10615Z" fill="#D61F69"/>
</svg>
